name analog
datacolumns 19
datarows 69
range 0.725 0.759
endheader
time	ground_force_vx	ground_force_vy	ground_force_vz	ground_force_px	ground_force_py	ground_force_pz	l_ground_force_vx	l_ground_force_vy	l_ground_force_vz	l_ground_force_px	l_ground_force_py	l_ground_force_pz	ground_torque_x	ground_torque_y	ground_torque_z	l_ground_torque_x	l_ground_torque_y	l_ground_torque_z
0.725	-0.0	-0.0	-0.0	-0.0	-0.0	-0.0	-6.382146835327148	-12.183384895324709	-773.370849609375	-0.0	-0.0	-0.0	-0.0	-0.0	-0.0	230173.0625	-2428.484619140625	-3210.929443359375
0.7255	-0.0	-0.0	-0.0	-0.0	-0.0	-0.0	-5.939962863922119	-12.18231964111328	-776.1688842773438	-0.0	-0.0	-0.0	-0.0	-0.0	-0.0	231365.984375	-3267.80859375	-3446.307861328125
0.726	-0.0	-0.0	-0.0	-0.0	-0.0	-0.0	-5.408992767333984	-11.393497467041016	-780.7169799804688	-0.0	-0.0	-0.0	-0.0	-0.0	-0.0	232846.46875	-3242.0927734375	-3091.801025390625
0.7265	-0.0	-0.0	-0.0	-0.0	-0.0	-0.0	-4.525404930114746	-10.507980346679688	-784.23095703125	-0.0	-0.0	-0.0	-0.0	-0.0	-0.0	234317.390625	-3768.761474609375	-2796.624755859375
0.727	-0.0	-0.0	-0.0	-0.0	-0.0	-0.0	-3.991985321044922	-9.980350494384766	-788.3931884765625	-0.0	-0.0	-0.0	-0.0	-0.0	-0.0	235808.53125	-3454.115234375	-2794.541259765625
0.7275	-0.0	-0.0	-0.0	-0.0	-0.0	-0.0	-4.165086269378662	-9.358872413635254	-792.5997314453125	-0.0	-0.0	-0.0	-0.0	-0.0	-0.0	237166.5625	-3458.319580078125	-2912.415283203125
0.728	-0.0	-0.0	-0.0	-0.0	-0.0	-0.0	-4.174671173095703	-8.3032865524292	-798.15234375	-0.0	-0.0	-0.0	-0.0	-0.0	-0.0	238693.234375	-3170.7919921875	-3001.85009765625
0.7285	-0.0	-0.0	-0.0	-0.0	-0.0	-0.0	-5.320616245269775	-7.33575439453125	-800.588623046875	-0.0	-0.0	-0.0	-0.0	-0.0	-0.0	239759.796875	-2590.266357421875	-3091.72607421875
0.729	-0.0	-0.0	-0.0	-0.0	-0.0	-0.0	-6.130823135375977	-6.888117790222168	-801.3068237304688	-0.0	-0.0	-0.0	-0.0	-0.0	-0.0	240397.890625	-1935.609619140625	-3449.100341796875
0.7295	-0.0	-0.0	-0.0	-0.0	-0.0	-0.0	-7.457409381866455	-6.08946418762207	-799.2229614257812	-0.0	-0.0	-0.0	-0.0	-0.0	-0.0	240550.9375	-1254.5908203125	-3864.764892578125
0.73	-0.0	-0.0	-0.0	-0.0	-0.0	-0.0	-9.409734725952148	-5.38671350479126	-800.2590942382812	-0.0	-0.0	-0.0	-0.0	-0.0	-0.0	240972.046875	-550.939453125	-4282.43017578125
0.7305	-0.0	-0.0	-0.0	-0.0	-0.0	-0.0	-11.093226432800291	-4.851590156555176	-797.8217163085938	-0.0	-0.0	-0.0	-0.0	-0.0	-0.0	240942.65625	-60.006195068359375	-4727.46142578125
0.731	-0.0	-0.0	-0.0	-0.0	-0.0	-0.0	-12.41695499420166	-3.704423189163208	-795.0349731445312	-0.0	-0.0	-0.0	-0.0	-0.0	-0.0	240545.828125	-19.847240447998047	-4993.900390625
0.7315	-0.0	-0.0	-0.0	-0.0	-0.0	-0.0	-12.688084602355955	-3.0013160705566406	-793.275634765625	-0.0	-0.0	-0.0	-0.0	-0.0	-0.0	239910.28125	-329.32635498046875	-5082.3369140625
0.732	-0.0	-0.0	-0.0	-0.0	-0.0	-0.0	-12.064666748046877	-2.7379722595214844	-791.1654052734375	-0.0	-0.0	-0.0	-0.0	-0.0	-0.0	239629.578125	-1223.9361572265625	-4784.6669921875
0.7325	-0.0	-0.0	-0.0	-0.0	-0.0	-0.0	-11.089597702026367	-2.827039957046509	-790.4733276367188	-0.0	-0.0	-0.0	-0.0	-0.0	-0.0	239240.703125	-2100.896728515625	-4337.80029296875
0.733	-0.0	-0.0	-0.0	-0.0	-0.0	-0.0	-9.844049453735352	-3.004354953765869	-789.0770263671875	-0.0	-0.0	-0.0	-0.0	-0.0	-0.0	239377.75	-2905.8212890625	-3743.766845703125
0.7335	-0.0	-0.0	-0.0	-0.0	-0.0	-0.0	-8.244707107543945	-2.829651355743408	-785.9376831054688	-0.0	-0.0	-0.0	-0.0	-0.0	-0.0	238640.734375	-3923.3310546875	-3120.85546875
0.734	-0.0	-0.0	-0.0	-0.0	-0.0	-0.0	-7.0943145751953125	-2.2963638305664062	-782.4437255859375	-0.0	-0.0	-0.0	-0.0	-0.0	-0.0	237945.78125	-4675.3125	-2644.876220703125
0.7345	-0.0	-0.0	-0.0	-0.0	-0.0	-0.0	-5.588170051574707	-1.5873627662658691	-778.6033325195312	-0.0	-0.0	-0.0	-0.0	-0.0	-0.0	237176.875	-5693.77197265625	-2050.992431640625
0.735	-0.0	-0.0	-0.0	-0.0	-0.0	-0.0	-3.9067070484161377	-0.9732472896575928	-775.4544677734375	-0.0	-0.0	-0.0	-0.0	-0.0	-0.0	235760.125	-5897.080078125	-1782.4854736328125
0.7355	-0.0	-0.0	-0.0	-0.0	-0.0	-0.0	-3.546293020248413	-0.9710062742233276	-770.9309692382812	-0.0	-0.0	-0.0	-0.0	-0.0	-0.0	234962.875	-6864.6015625	-1366.7781982421875
0.736	-0.0	-0.0	-0.0	-0.0	-0.0	-0.0	-2.4828875064849854	-0.0030303762760013	-767.4293212890625	-0.0	-0.0	-0.0	-0.0	-0.0	-0.0	234113.15625	-7329.2412109375	-950.6766357421876
0.7365	-0.0	-0.0	-0.0	-0.0	-0.0	-0.0	-0.9767582416534424	-0.701896071434021	-763.5908813476562	-0.0	-0.0	-0.0	-0.0	-0.0	-0.0	233027.90625	-7771.17333984375	-742.3168334960938
0.737	-0.0	-0.0	-0.0	-0.0	-0.0	-0.0	-0.4444185495376587	-0.7078647613525391	-759.748779296875	-0.0	-0.0	-0.0	-0.0	-0.0	-0.0	232231.40625	-7975.14306640625	-386.1283874511719
0.7375	-0.0	-0.0	-0.0	-0.0	-0.0	-0.0	-0.3544347882270813	-1.326045036315918	-756.9591064453125	-0.0	-0.0	-0.0	-0.0	-0.0	-0.0	231404.28125	-7796.65869140625	-208.51026916503903
0.738	-0.0	-0.0	-0.0	-0.0	-0.0	-0.0	-0.1777924448251724	-1.8566017150878904	-754.8643798828125	-0.0	-0.0	-0.0	-0.0	-0.0	-0.0	230379.21875	-8019.8935546875	-415.77056884765625
0.7385	-0.0	-0.0	-0.0	-0.0	-0.0	-0.0	-0.7983970642089844	-2.651642084121704	-751.7207641601562	-0.0	-0.0	-0.0	-0.0	-0.0	-0.0	229894.03125	-7415.8193359375	-683.4027709960938
0.739	-0.0	-0.0	-0.0	-0.0	-0.0	-0.0	-1.4190664291381836	-2.562852621078491	-749.6261596679688	-0.0	-0.0	-0.0	-0.0	-0.0	-0.0	229753.9375	-6984.67333984375	-891.8884887695312
0.7395	-0.0	-0.0	-0.0	-0.0	-0.0	-0.0	-1.8634637594223025	-3.00400710105896	-749.6253662109375	-0.0	-0.0	-0.0	-0.0	-0.0	-0.0	230174.671875	-6601.91455078125	-1396.2982177734375
0.74	-0.0	-0.0	-0.0	-0.0	-0.0	-0.0	-2.217076301574707	-2.6501107215881348	-749.2739868164062	-0.0	-0.0	-0.0	-0.0	-0.0	-0.0	230155.546875	-6273.35498046875	-1811.75634765625
0.7405	-0.0	-0.0	-0.0	-0.0	-0.0	-0.0	-2.1304855346679688	-2.384279727935791	-748.9317626953125	-0.0	-0.0	-0.0	-0.0	-0.0	-0.0	231197.28125	-6326.5234375	-1960.219970703125
0.741	-0.0	-0.0	-0.0	-0.0	-0.0	-0.0	-2.4837355613708496	-2.206882953643799	-751.374267578125	-0.0	-0.0	-0.0	-0.0	-0.0	-0.0	232377.0	-6345.2177734375	-2079.1435546875
0.7415	-0.0	-0.0	-0.0	-0.0	-0.0	-0.0	-1.862282395362854	-1.2359905242919922	-754.5176391601562	-0.0	-0.0	-0.0	-0.0	-0.0	-0.0	233645.890625	-6717.56396484375	-2226.398193359375
0.742	-0.0	-0.0	-0.0	-0.0	-0.0	-0.0	-1.5082660913467407	-0.6187974810600281	-756.6140747070312	-0.0	-0.0	-0.0	-0.0	-0.0	-0.0	234867.390625	-6930.240234375	-2285.391357421875
0.7425	-0.0	-0.0	-0.0	-0.0	-0.0	-0.0	-0.3549712896347046	-0.7065097093582153	-759.75439453125	-0.0	-0.0	-0.0	-0.0	-0.0	-0.0	236062.828125	-7040.216796875	-2166.013916015625
0.743	-0.0	-0.0	-0.0	-0.0	-0.0	-0.0	0.3547899723052978	-0.5300095081329346	-761.150390625	-0.0	-0.0	-0.0	-0.0	-0.0	-0.0	236978.1875	-7407.66357421875	-2313.67724609375
0.7435	-0.0	-0.0	-0.0	-0.0	-0.0	-0.0	0.7983534336090088	-0.0883542597293853	-762.1980590820312	-0.0	-0.0	-0.0	-0.0	-0.0	-0.0	238274.671875	-7964.54736328125	-2135.2763671875
0.744	-0.0	-0.0	-0.0	-0.0	-0.0	-0.0	0.7099922895431519	1.5895999670028689	-764.2928466796875	-0.0	-0.0	-0.0	-0.0	-0.0	-0.0	239437.5	-8259.8056640625	-2164.6171875
0.7445	-0.0	-0.0	-0.0	-0.0	-0.0	-0.0	1.3303587436676023	2.031097173690796	-766.3869018554688	-0.0	-0.0	-0.0	-0.0	-0.0	-0.0	239745.078125	-8632.125	-2312.15576171875
0.745	-0.0	-0.0	-0.0	-0.0	-0.0	-0.0	1.1527873277664185	1.678675651550293	-764.993896484375	-0.0	-0.0	-0.0	-0.0	-0.0	-0.0	240357.578125	-8584.126953125	-2371.76318359375
0.7455	-0.0	-0.0	-0.0	-0.0	-0.0	-0.0	0.7098268270492554	1.6783918142318726	-766.0392456054688	-0.0	-0.0	-0.0	-0.0	-0.0	-0.0	240556.46875	-9015.8369140625	-2253.48876953125
0.746	-0.0	-0.0	-0.0	-0.0	-0.0	-0.0	0.2664883732795715	1.6788209676742554	-767.784423828125	-0.0	-0.0	-0.0	-0.0	-0.0	-0.0	241019.859375	-9388.6640625	-2253.850830078125
0.7465	-0.0	-0.0	-0.0	-0.0	-0.0	-0.0	0.5316181778907776	1.5908631086349487	-768.1343994140625	-0.0	-0.0	-0.0	-0.0	-0.0	-0.0	241882.5625	-9665.6240234375	-2253.8291015625
0.747	-0.0	-0.0	-0.0	-0.0	-0.0	-0.0	0.2675689458847046	1.7673872709274292	-769.52734375	-0.0	-0.0	-0.0	-0.0	-0.0	-0.0	242533.390625	-10028.841796875	-2135.091552734375
0.7475	-0.0	-0.0	-0.0	-0.0	-0.0	-0.0	0.0895415246486663	3.267075300216675	-770.5765380859375	-0.0	-0.0	-0.0	-0.0	-0.0	-0.0	242979.59375	-10735.15625	-2134.732177734375
0.748	-0.0	-0.0	-0.0	-0.0	-0.0	-0.0	0.1789935827255249	3.9738497734069824	-771.6226196289062	-0.0	-0.0	-0.0	-0.0	-0.0	-0.0	243667.09375	-11253.6259765625	-1867.802978515625
0.7485	-0.0	-0.0	-0.0	-0.0	-0.0	-0.0	0.6213172078132629	4.503385543823242	-772.673828125	-0.0	-0.0	-0.0	-0.0	-0.0	-0.0	244364.890625	-11694.466796875	-1867.020263671875
0.749	-0.0	-0.0	-0.0	-0.0	-0.0	-0.0	1.0630128383636477	4.59159517288208	-772.330810546875	-0.0	-0.0	-0.0	-0.0	-0.0	-0.0	245019.84375	-11728.775390625	-1688.9278564453125
0.7495	-0.0	-0.0	-0.0	-0.0	-0.0	-0.0	0.8883577585220337	4.5064802169799805	-773.370849609375	-0.0	-0.0	-0.0	-0.0	-0.0	-0.0	244631.21875	-12086.1337890625	-1421.9581298828125
0.75	-0.0	-0.0	-0.0	-0.0	-0.0	-0.0	1.3292993307113647	5.12220573425293	-773.376220703125	-0.0	-0.0	-0.0	-0.0	-0.0	-0.0	244597.265625	-12411.9013671875	-1125.138916015625
0.7505000000000001	-0.0	-0.0	-0.0	-0.0	-0.0	-0.0	1.5071204900741575	4.856255054473877	-771.6326904296875	-0.0	-0.0	-0.0	-0.0	-0.0	-0.0	244476.625	-12693.705078125	-947.265869140625
0.751	-0.0	-0.0	-0.0	-0.0	-0.0	-0.0	1.7731778621673584	4.5927276611328125	-771.2656860351562	-0.0	-0.0	-0.0	-0.0	-0.0	-0.0	243438.828125	-13201.6650390625	-769.531494140625
0.7515000000000001	-0.0	-0.0	-0.0	-0.0	-0.0	-0.0	1.3306617736816406	4.768263339996338	-768.487060546875	-0.0	-0.0	-0.0	-0.0	-0.0	-0.0	242766.765625	-13110.8359375	-680.6735229492188
0.752	-0.0	-0.0	-0.0	-0.0	-0.0	-0.0	1.0639456510543823	4.06163501739502	-766.7369384765625	-0.0	-0.0	-0.0	-0.0	-0.0	-0.0	242208.421875	-13359.1005859375	-709.9534301757812
0.7525000000000001	-0.0	-0.0	-0.0	-0.0	-0.0	-0.0	0.8883503079414368	2.653361558914185	-765.00341796875	-0.0	-0.0	-0.0	-0.0	-0.0	-0.0	241824.390625	-13660.9501953125	-622.4700317382812
0.753	-0.0	-0.0	-0.0	-0.0	-0.0	-0.0	0.6242691278457642	3.087979793548584	-765.3351440429688	-0.0	-0.0	-0.0	-0.0	-0.0	-0.0	241864.8125	-14428.7587890625	-562.388427734375
0.7535000000000001	-0.0	-0.0	-0.0	-0.0	-0.0	-0.0	1.241268277168274	2.1251583099365234	-767.429931640625	-0.0	-0.0	-0.0	-0.0	-0.0	-0.0	241720.984375	-14743.0791015625	-385.3513793945313
0.754	-0.0	-0.0	-0.0	-0.0	-0.0	-0.0	2.387989282608032	2.0349838733673096	-764.6448974609375	-0.0	-0.0	-0.0	-0.0	-0.0	-0.0	241523.78125	-15088.4296875	-175.76901245117188
0.7545000000000001	-0.0	-0.0	-0.0	-0.0	-0.0	-0.0	2.305722713470459	1.5958251953125	-767.0830688476562	-0.0	-0.0	-0.0	-0.0	-0.0	-0.0	241549.6875	-15671.548828125	-27.112144470214844
0.755	-0.0	-0.0	-0.0	-0.0	-0.0	-0.0	2.3959763050079346	1.4147101640701294	-767.7720947265625	-0.0	-0.0	-0.0	-0.0	-0.0	-0.0	241099.15625	-15727.0029296875	1.8008500337600708
0.7555000000000001	-0.0	-0.0	-0.0	-0.0	-0.0	-0.0	2.219414710998535	1.4106903076171875	-766.3748779296875	-0.0	-0.0	-0.0	-0.0	-0.0	-0.0	240638.6875	-15796.3251953125	1.936763048171997
0.756	-0.0	-0.0	-0.0	-0.0	-0.0	-0.0	2.5717527866363525	0.971538543701172	-763.953857421875	-0.0	-0.0	-0.0	-0.0	-0.0	-0.0	240461.3125	-16126.4912109375	2.9385313987731934
0.7565000000000001	-0.0	-0.0	-0.0	-0.0	-0.0	-0.0	2.569950819015503	0.3550536036491394	-762.9171752929688	-0.0	-0.0	-0.0	-0.0	-0.0	-0.0	239901.828125	-16475.884765625	90.61333465576172
0.757	-0.0	-0.0	-0.0	-0.0	-0.0	-0.0	2.49037504196167	-0.0	-763.9509887695312	-0.0	-0.0	-0.0	-0.0	-0.0	-0.0	239657.453125	-17349.57421875	325.2926330566406
0.7575000000000001	-0.0	-0.0	-0.0	-0.0	-0.0	-0.0	3.1955127716064453	-0.0921536087989807	-764.6307373046875	-0.0	-0.0	-0.0	-0.0	-0.0	-0.0	239462.828125	-17604.9375	474.29986572265625
0.758	-0.0	-0.0	-0.0	-0.0	-0.0	-0.0	4.0786967277526855	-0.8772450089454651	-764.2928466796875	-0.0	-0.0	-0.0	-0.0	-0.0	-0.0	239307.859375	-18368.0	714.2805786132812
0.7585000000000001	-0.0	-0.0	-0.0	-0.0	-0.0	-0.0	4.885255336761475	-0.8821942806243896	-762.9002685546875	-0.0	-0.0	-0.0	-0.0	-0.0	-0.0	239043.78125	-19135.416015625	1128.7666015625
0.759	-0.0	-0.0	-0.0	-0.0	-0.0	-0.0	5.586650371551514	-1.2354437112808228	-762.9130249023438	-0.0	-0.0	-0.0	-0.0	-0.0	-0.0	238602.71875	-19450.376953125	1397.869384765625
